<svg viewBox="0 0 500 500" xmlns="http://www.w3.org/2000/svg" fill-rule="evenodd" clip-rule="evenodd" stroke-linejoin="round" stroke-miterlimit="2"><clipPath id="a"><path d="M21.362 136.549h447.254v326.206H21.362z"/></clipPath><g clip-path="url(#a)"><path d="M122.258 235.82a91.516 91.516 0 01-.918 4.075c-2.87 11.325-3.775 52.44-43.609 90.204-39.084 37.053-43.819 100.017 40.725 133.234 84.543 33.217 211.496 40.86 293.707-53.531 36.781-42.233 61.004-93.277 33.628-137.933-28.312-46.184-80.974-15.638-117.736-39.101-45.519-29.05-93.465-81.585-158.502-59.431-36.032 12.274-45.873 55.573-47.295 62.483z" fill="#f6e7d0" fill-rule="nonzero"/></g><clipPath id="b"><path d="M122.258 235.82a91.516 91.516 0 01-.918 4.075c-2.87 11.325-3.775 52.44-43.609 90.204-39.084 37.053-43.819 100.017 40.725 133.234 84.543 33.217 211.496 40.86 293.707-53.531 36.781-42.233 61.004-93.277 33.628-137.933-28.313-46.184-80.974-15.638-117.736-39.101-45.519-29.05-93.465-81.585-158.502-59.431-36.032 12.274-45.873 55.573-47.295 62.483z"/></clipPath><g clip-path="url(#b)"><path d="M47.34 413.654s37.542-51.64 100.363-37.901c62.819 13.739 79.109 65.256 142.482 51.743 85.599-18.253 104.595-129.193 198.055-28.042 0 0-135.866 184.468-293.425 136.757C37.256 488.5 47.34 413.654 47.34 413.654z" fill="#f3dfbf" fill-rule="nonzero"/></g><path d="M465.616 385.475l1.393 5.254 4.673 1.566-4.673 1.565-1.393 5.255-1.392-5.255-4.673-1.565 4.673-1.566 1.392-5.254zM373.457 345.892h-89.63v-32.555h89.63c-9.912 16.277 0 32.555 0 32.555z" fill="#fff" fill-rule="nonzero"/><path d="M295.565 333.446v-7.664c0-7.792 6.318-14.109 14.111-14.109H129.144c-7.793 0-14.11 6.317-14.11 14.109v7.664c0 7.792 6.317 14.11 14.11 14.11h180.532c-7.793 0-14.111-6.318-14.111-14.11z" fill="#e4ac66" fill-rule="nonzero"/><path fill="#e4ac66" fill-rule="nonzero" d="M298.717 344.228h79.113v3.328h-79.113zM298.717 311.673h79.113v3.328h-79.113z"/><path d="M242.083 347.644c-.375-.219-8.52-5.347-8.52-17.986 0-13.214 7.579-17.766 7.955-17.985l3.635.001 3.537-.001c-.251.155-8.067 6.63-8.067 17.94 0 11.311 7.495 17.787 7.747 17.943l-6.287.088zM257.98 347.644c-.376-.219-8.52-5.347-8.52-17.986 0-13.214 7.579-17.766 7.955-17.985l3.636.001 3.537-.001c-.252.155-8.069 6.63-8.069 17.94 0 11.311 7.497 17.787 7.748 17.943l-6.287.088zM172.02 347.644c-.376-.219-8.52-5.347-8.52-17.986 0-13.214 7.578-17.766 7.954-17.985l3.635.001 24.479-.001c-.251.155-8.068 6.63-8.068 17.94 0 11.311 7.496 17.787 7.748 17.943l-27.228.088z" fill="#ce883a" fill-rule="nonzero"/><path d="M150.985 350.884s6.567 13.641 0 43.704h125.808V349.22l-125.808 1.664z" fill="#fff" fill-rule="nonzero"/><path d="M272.794 377.104v-10.401c0-10.575-8.573-19.147-19.148-19.147h120.625c10.575 0 19.148 8.572 19.148 19.147v10.401c0 10.575-8.573 19.148-19.148 19.148H253.646c10.575 0 19.148-8.573 19.148-19.148z" fill="#3d3d9e" fill-rule="nonzero"/><path fill="#3d3d9e" fill-rule="nonzero" d="M145.771 347.556h134.546v3.328H145.771zM145.771 392.924h134.546v3.328H145.771z"/><path d="M365.491 396.252c.509-.296 11.534-7.237 11.534-24.349 0-17.887-10.259-24.051-10.768-24.347l-4.922.001-38.39-.001c.34.21 10.922 8.975 10.922 24.288 0 15.312-10.147 24.079-10.488 24.289l42.112.119zM305.15 396.252c.51-.296 11.536-7.237 11.536-24.349 0-17.887-10.26-24.051-10.769-24.347l-4.922.001-2.278-.001c.341.21 10.922 8.975 10.922 24.288 0 15.312-10.147 24.079-10.488 24.289l5.999.119z" fill="#5a5ac7" fill-rule="nonzero"/><path d="M347.575 430.383h-89.63v-32.555h89.63c-9.912 16.277 0 32.555 0 32.555z" fill="#fff" fill-rule="nonzero"/><path d="M269.684 417.938v-7.665c0-7.792 6.317-14.109 14.109-14.109h-170.03c-7.792 0-14.11 6.317-14.11 14.109v7.665c0 7.792 6.318 14.109 14.11 14.109h170.03c-7.792 0-14.109-6.317-14.109-14.109z" fill="#79c2a0" fill-rule="nonzero"/><path fill="#79c2a0" fill-rule="nonzero" d="M272.835 428.719h79.112v3.328h-79.112zM272.835 396.164h79.112v3.328h-79.112z"/><path d="M242.083 432.135c-.375-.219-8.52-5.346-8.52-17.986 0-13.213 7.579-17.766 7.955-17.985l3.635.001 3.537-.001c-.251.155-8.067 6.63-8.067 17.94 0 11.312 7.495 17.788 7.747 17.943l-6.287.088zM172.02 432.135c-.376-.219-8.52-5.346-8.52-17.986 0-13.213 7.578-17.766 7.954-17.985l3.635.001 24.479-.001c-.251.155-8.068 6.63-8.068 17.94 0 11.312 7.496 17.788 7.748 17.943l-27.228.088z" fill="#67aa88" fill-rule="nonzero"/><path d="M380.29 460.791h-75.291v-27.347h75.291c-8.326 13.674 0 27.347 0 27.347z" fill="#fff" fill-rule="nonzero"/><path d="M314.86 450.337v-6.438c0-6.545 5.307-11.852 11.852-11.852H122.957c-6.546 0-11.852 5.307-11.852 11.852v6.438c0 6.546 5.306 11.852 11.852 11.852h203.755c-6.545 0-11.852-5.306-11.852-11.852z" fill="#3d3d9e" fill-rule="nonzero"/><path fill="#3d3d9e" fill-rule="nonzero" d="M317.507 459.394h66.456v2.795h-66.456zM317.507 432.047h66.456v2.796h-66.456z"/><path d="M146.633 462.189c-.315-.183-7.14-4.48-7.14-15.071 0-11.072 6.351-14.888 6.666-15.071l3.046.001 2.964-.001c-.211.13-6.76 5.556-6.76 15.034 0 9.478 6.281 14.904 6.491 15.034l-5.267.074zM163.067 462.189c-.315-.183-7.14-4.48-7.14-15.071 0-11.072 6.351-14.888 6.666-15.071l3.046.001 2.964-.001c-.21.13-6.76 5.556-6.76 15.034 0 9.478 6.281 14.904 6.491 15.034l-5.267.074zM264.164 462.189c-.315-.183-7.141-4.48-7.141-15.071 0-11.072 6.351-14.888 6.666-15.071l3.047.001 2.964-.001c-.211.13-6.761 5.556-6.761 15.034 0 9.478 6.282 14.904 6.492 15.034l-5.267.074zM280.598 462.189c-.316-.183-7.14-4.48-7.14-15.071 0-11.072 6.351-14.888 6.665-15.071l3.047.001 2.964-.001c-.211.13-6.761 5.556-6.761 15.034 0 9.478 6.281 14.904 6.492 15.034l-5.267.074z" fill="#5a5ac7" fill-rule="nonzero"/><path d="M278.396 198.487s-17.903-12.418-28.691-.851c-8.158 8.746-19.84 31.868-25.851 53.76-1.787 6.509 2.92 13.082 9.469 14.715a12.77 12.77 0 0014.778-7.238l30.295-60.386z" fill="#79c2a0" fill-rule="nonzero"/><path d="M237.482 266.493s-11.62-.597-35.175-3.778l-3.851-25.056 38.205 2.737.821 26.097z" fill="#79c2a0" fill-rule="nonzero"/><path d="M263.523 277.208l-55.964-59.953c-6.649-7.521-18.529-7.034-24.539 1.007a15.829 15.829 0 00.098 19.084l39.127 51.238 41.278-11.376z" fill="#292984" fill-rule="nonzero"/><path d="M188.514 292.238h-16.32l-26.989 14.439 46.407-.554-3.098-13.885z" fill="#101010" fill-rule="nonzero"/><path d="M191.773 311.209l-.161-5.086-46.407.554.162 5.086 46.406-.554zM160.78 298.051l5.346 1.462a.513.513 0 10.271-.991l-5.347-1.462a.514.514 0 00-.27.991zM166.006 295.369l5.347 1.461a.514.514 0 00.271-.99l-5.347-1.461a.513.513 0 10-.271.99z" fill="#fff" fill-rule="nonzero"/><path d="M176.544 269.23h16.634l-4.664 23.008H171.88l4.664-23.008z" fill="#e0b095" fill-rule="nonzero"/><path d="M180.342 223.901l-11.527 54.171h28.069l10.403-43.539-26.945-10.632z" fill="#292984" fill-rule="nonzero"/><path d="M199.94 271.96l-2.794 11.747-31.004-2.298 2.114-12.179 31.684 2.73z" fill="#5a5ac7" fill-rule="nonzero"/><path d="M205.004 242.749l-4.244 17.76a.312.312 0 00.606.145l4.243-17.76a.31.31 0 10-.605-.145z" fill-rule="nonzero"/><path d="M305.831 267.948s2.962 7.44 5.05 16.698c3.122 13.843-6.144 26.979-20.335 26.979h-58.708c-10.391 0-18.893-8.502-18.893-18.893 0-7.727 5.991-14.131 13.701-14.647l64.683-4.518 14.502-5.619z" fill="#3d3d9e" fill-rule="nonzero"/><path d="M230.724 389.321l-16.045 2.982-23.898 19.124 45.525-9.021-5.582-13.085z" fill="#101010" fill-rule="nonzero"/><path d="M237.394 407.377l-1.088-4.971-45.525 9.021 1.088 4.97 45.525-9.02zM204.517 400.103l5.524.459a.513.513 0 10.086-1.023l-5.524-.46a.515.515 0 00-.086 1.024zM209.166 396.511l5.524.46a.515.515 0 00.086-1.024l-5.524-.46a.515.515 0 00-.086 1.024z" fill="#fff" fill-rule="nonzero"/><path d="M216.282 366.589l16.355-3.039-1.913 25.771-16.354 3.038 1.912-25.77z" fill="#e0b095" fill-rule="nonzero"/><path d="M212.945 292.074l-3.593 85.383 28.661-1.239 5.884-80.645-30.952-3.499z" fill="#3d3d9e" fill-rule="nonzero"/><path d="M207.218 369.584v12.404s32.269.195 32.269-.475c0-.67.595-11.979.595-11.979l-32.864.05z" fill="#5a5ac7" fill-rule="nonzero"/><path d="M242.806 311.648l.638-8.714a.311.311 0 00-.621-.046l-.638 8.714a.311.311 0 00.621.046z" fill-rule="nonzero"/><path d="M262.327 159.504a6.421 6.421 0 11-12.493-2.973 6.421 6.421 0 0112.493 2.973z" fill="#cf997f" fill-rule="nonzero"/><path d="M253.734 136.549s-9.458 11.292-.678 17.542l11.276-13.136-10.598-4.406zM266.113 134.376s25.496-8.656 30.287 5.005c4.806 13.702-11.593 31.659-11.593 31.659l-18.694-36.664z" fill-rule="nonzero"/><path d="M267.666 173.242l-.737 22.946 19.981-1.254-2.816-37.331-16.428 15.639z" fill="#e0b095" fill-rule="nonzero"/><path d="M262.322 134.003c-5.264 2.009-8.846 6.932-9.495 12.529-.747 6.445-1.46 16.439.489 21.362 3.013 7.609 9.547 12.126 19.537 9.541 0 0 11.675-1.287 13.564-18.845 2.234-20.776-12.273-29.098-24.095-24.587z" fill="#e0b095" fill-rule="nonzero"/><path d="M256.653 158.462a1.415 1.415 0 01-1.665 1.114 1.418 1.418 0 01.553-2.78 1.415 1.415 0 011.112 1.666zM268.627 158.707a1.417 1.417 0 11-2.78-.553 1.417 1.417 0 012.78.553zM258.691 161.55l-.681 2.64-.032.251a1 1 0 00.8.981l1.495.307a.217.217 0 00.086-.425l-1.493-.307a.568.568 0 01-.455-.556l.019-.143.681-2.639a.219.219 0 00-.155-.265.218.218 0 00-.265.156zM270.015 148.543s-4.426-.972-4.69 1.417c0 0-.144 1.621 3.726 2.369 3.871.749 5.423.651 5.918-.833.495-1.483-2.86-2.708-4.954-2.953zM253.536 148.573s4.078-1.103 4.569 1.22c0 0 .306 1.59-3.274 2.444-2.606.621-3.551.134-3.773-.932-.265-1.262.942-2.462 2.478-2.732zM258.894 170.439s.121-.096.351-.248c.688-.458 2.311-1.376 4.156-1.376 1.19 0 2.471.384 3.655 1.497.137.132.301.011.364-.27.065-.281.006-.613-.133-.742-1.278-1.204-2.639-1.603-3.886-1.603-2.579.002-4.69 1.69-4.709 1.701-.141.113-.211.438-.155.726.056.286.216.428.357.315z" fill-rule="nonzero"/><path d="M267.508 178.167s4.854.59 10.058-2.887l-10.299 10.394.241-7.507z" fill="#20120c" fill-rule="nonzero"/><path d="M288.64 137.87s-.29-18.155-24.393-12.684c0 0-10.726 4.633-13.938 2.238 0 0-3.448 14.162 14.023 13.531 18.072-.653 24.308-3.085 24.308-3.085z" fill-rule="nonzero"/><path d="M280.511 136.549l-.252.752a22.725 22.725 0 00.512 15.847l2.227 5.442 10.616-7.755-9.804-17.492-3.299 3.206z" fill-rule="nonzero"/><path d="M293.991 160.989a6.42 6.42 0 11-12.493-2.973 6.42 6.42 0 0112.493 2.973z" fill="#e0b095" fill-rule="nonzero"/><path d="M290.567 157.256a5.097 5.097 0 00-1.032-.094c-.75 0-1.806.138-2.771.769-.966.631-1.82 1.761-2.159 3.67a.204.204 0 00.403.072c.327-1.823 1.111-2.828 1.98-3.4.87-.571 1.845-.703 2.547-.702.284 0 .523.021.689.042.166.022.254.042.254.042a.204.204 0 10.089-.399z" fill-rule="nonzero"/><path d="M268.525 165.168a6.225 6.225 0 010-12.451 6.226 6.226 0 110 12.451zm-1.291-8.155c-.662 0-1.254.467-1.387 1.141a1.415 1.415 0 001.391 1.694 1.418 1.418 0 10-.004-2.835z" fill="#e5bda6" fill-rule="nonzero"/><path d="M267.238 159.848a1.415 1.415 0 01-1.391-1.694 1.416 1.416 0 011.666-1.113 1.418 1.418 0 01-.275 2.807z" fill="#292929" fill-rule="nonzero"/><path d="M252.442 164.378c-2.394-.577-4.192-3.021-4.192-5.948 0-2.55 1.365-4.734 3.3-5.635.112.118.229.234.35.349a6.424 6.424 0 00.392 10.059c.044.402.093.794.15 1.175z" fill="#faf4e8" fill-rule="nonzero"/><path d="M252.292 163.203a6.424 6.424 0 01-.392-10.059c.101.096.205.19.312.284-.197 3.33-.237 6.81.08 9.775z" fill="#d7a994" fill-rule="nonzero"/><path d="M252.212 153.428a10.754 10.754 0 01-.662-.633c.232-.108.473-.198.72-.267-.021.298-.04.598-.058.9z" fill="#292929" fill-rule="nonzero"/><path d="M253.53 164.507c-.373 0-.737-.044-1.088-.129a30.067 30.067 0 01-.15-1.175c-.317-2.965-.277-6.445-.08-9.775.018-.302.037-.602.058-.9a2.95 2.95 0 01.168-.044c.141.018.294.027.461.027.342 0 .742-.039 1.206-.122 2.646.33 4.705 2.909 4.705 6.041 0 3.357-2.364 6.077-5.28 6.077zm1.733-7.739a1.418 1.418 0 00.004 2.836c.662 0 1.252-.467 1.386-1.142a1.415 1.415 0 00-1.39-1.694z" fill="#e5bda6" fill-rule="nonzero"/><path d="M255.267 159.604a1.418 1.418 0 11.274-2.808 1.415 1.415 0 011.112 1.666 1.415 1.415 0 01-1.386 1.142zM252.899 152.511c-.167 0-.32-.009-.461-.027a4.598 4.598 0 011.667-.095 6.935 6.935 0 01-1.206.122z" fill="#292929" fill-rule="nonzero"/><path d="M275.129 158.943h-.754a5.826 5.826 0 01-1.713 4.135 5.83 5.83 0 01-4.137 1.713 5.826 5.826 0 01-4.135-1.713 5.826 5.826 0 01-1.713-4.135c0-1.617.654-3.077 1.713-4.136a5.826 5.826 0 014.135-1.713 5.83 5.83 0 014.137 1.713 5.826 5.826 0 011.713 4.136h.754a6.603 6.603 0 10-13.206 0 6.603 6.603 0 0013.206 0zM259.153 158.43h-.686c0 1.598-.564 3.038-1.463 4.072-.9 1.035-2.125 1.662-3.474 1.662-1.349 0-2.574-.627-3.475-1.662-.899-1.034-1.462-2.474-1.462-4.072 0-1.597.563-3.037 1.462-4.072.901-1.035 2.126-1.661 3.475-1.661 1.349 0 2.574.626 3.474 1.661.899 1.035 1.463 2.475 1.463 4.072h.686c-.001-1.759-.619-3.357-1.631-4.522-1.01-1.164-2.425-1.898-3.992-1.898-1.567 0-2.982.734-3.992 1.898-1.012 1.165-1.631 2.763-1.631 4.522 0 1.759.619 3.357 1.631 4.522 1.01 1.165 2.425 1.899 3.992 1.898 1.567.001 2.982-.733 3.992-1.898 1.012-1.165 1.63-2.763 1.631-4.522z" fill="#fff" fill-rule="nonzero"/><path d="M259.035 158.689l-.035-.041.034.042.001-.001-.035-.041.034.042c.028-.023.506-.406 1.369-.406.464.001 1.043.108 1.745.454l.304-.615c-.787-.388-1.477-.525-2.049-.525-1.147.001-1.782.541-1.819.574l.451.517zM274.864 159.267l7.352-2.54-.225-.648-7.351 2.54" fill="#fff" fill-rule="nonzero"/><path d="M270.499 190.994s-6.432.38-11.766 1.825c-2.925.793-4.998 3.39-5.077 6.42l-1.614 65.752c1.398 18.716 61.347 17.294 61.347 17.294l-.02-79.332s-12.279-9.307-24.959-11.311l-17.911-.648z" fill="#79c2a0" fill-rule="nonzero"/><path d="M252.69 250.976c0-.002-.031-.938-.061-2.666a418.274 418.274 0 01-.061-7.403c0-8.227.207-20.793 1.163-35.016a.31.31 0 10-.62-.042 532.182 532.182 0 00-1.165 35.058c0 6.321.122 10.087.122 10.089a.31.31 0 10.622-.02z" fill-rule="nonzero"/><path d="M293.146 192.682s-6.802-2.176-15.824-2.316c0 0-8.082.367-12.368 1.218 0 0-7.056 10.083 5.828 11.007 12.686.909 20.033-5.783 22.364-9.909z" fill="#e0b095" fill-rule="nonzero"/><path d="M199.177 168.365l4.31-1.082 3.8 16.314-4.41-1.758-3.7-13.474z" fill="#fff" fill-rule="nonzero"/><path d="M235.871 167.476l3.225 8.929-33.704 10.002-1.637-6.795 32.116-12.136z" fill="#fff" fill-rule="nonzero"/><path d="M201.932 181.102l-3.719-13.799 1.483-.736 4.367 16.198-2.131-1.663z" fill="#b62347" fill-rule="nonzero"/><path d="M203.755 180.801c3.296 1.505 5.901-1.137 5.901-1.137l30.286-8.843 9.241 40.081-29.121 7.987c-4.925 3.175-7.854-3.035-7.854-3.035l-8.453-35.053z" fill="#cb3f59" fill-rule="nonzero"/><path d="M210.042 179.551l-.385.113s-5.52 2.036-8.201-.462l9.656 36.578s4.025 6.284 8.95 3.109l.216-.059-10.236-39.279z" fill="#b62347" fill-rule="nonzero"/><path d="M214.299 183.597l1.164 4.247 22.46-5.815-1.17-4.308-22.454 5.876z" fill="#fff" fill-rule="nonzero"/><path d="M216.631 209.865a1.37 1.37 0 01-.095-1.232c.402-.98 1.796-1.073 2.439-.231 3.434 4.499 5.421 4.916 5.421 4.916-2.294-2.343-4.707-6.085-5.771-8.079a1.301 1.301 0 01.32-1.614c.601-.506 1.513-.293 1.962.354 3.115 4.489 7.078 7.164 7.078 7.164-1.819-2.388-3.846-7.088-4.759-9.325a1.04 1.04 0 01.818-1.424c.32-.045.637-.125 1.226.346.913.73 1.597 2.645 5.726 8.318 4.228 5.81 10.053 4.107 10.053 4.107 1.88 3.564.973 6.909.973 6.909l9.884 5.72-5.384 10.756-11.216-10.268c-4.529-.227-9.585-2.974-13.005-6.384-1.358-1.353-4.22-4.25-4.806-5.087-.365-.521.138-1.616 1.129-.956l4.354 2.967-3.075-2.898c-1.312-1.257-2.597-2.949-3.272-4.059z" fill="#e0b095" fill-rule="nonzero"/><path d="M294.475 193.053s21.671 3.031 22.076 15.637c.336 10.482-13.001 36.564-26.275 53.656-4.139 5.331-11.736 6.471-17.297 2.645a12.771 12.771 0 01-4.358-15.868l25.854-56.07z" fill="#79c2a0" fill-rule="nonzero"/><path d="M272.979 264.991s-21.11-10.546-36.876-28.333l11.28-18.191 36.838 23.262-11.242 23.262z" fill="#79c2a0" fill-rule="nonzero"/><path d="M280.223 238.837l-32.674-20.633-.236-.04-.195.139-1.868 3.013a.311.311 0 00.529.328l1.703-2.747 32.409 20.466a.312.312 0 00.332-.526z" fill-rule="nonzero"/><path d="M284.854 213.052l-10.652 22.394a.312.312 0 00.148.415.31.31 0 00.414-.147l10.652-22.394a.31.31 0 10-.562-.268z" fill-rule="nonzero"/><path d="M309.865 227.749l.296.092-.281-.132-.015.04.296.092-.281-.132.009.004-.009-.005v.001l.009.004-.009-.005c-.281.529-8.756 16.262-16.803 31.205-2.774 5.148-7.929 7.833-13.385 7.835-2.599 0-5.263-.611-7.764-1.86-9.388-4.686-26.277-18.78-35.601-28.446l-.224.216.264.164 3.686-5.945a.31.31 0 10-.528-.328l-3.686 5.945a.31.31 0 00.04.38c9.383 9.717 26.242 23.803 35.771 28.57 2.586 1.292 5.346 1.927 8.042 1.927 5.657.002 11.047-2.802 13.932-8.163l11.476-21.307a16306.409 16306.409 0 004.949-9.193l.288-.535.074-.138.019-.036.006-.01.002-.005.003-.005.004-.01.007-.015a.312.312 0 00-.58-.227l-.007.022z" fill-rule="nonzero"/><path d="M267.84 160.002s.962 1.864 1.425 3.139c.372 1.025-.499 2.027-1.425 2.027s-2.009-1.059-1.545-2.027c.517-1.078 1.545-3.139 1.545-3.139z" fill="#52a4ea"/></svg>